<svg version="1" xmlns="http://www.w3.org/2000/svg" width="666.667" height="666.667" viewBox="0 0 500.000000 500.000000"><path d="M230.5.6c-35.9 3.9-61.8 11.1-90.1 24.9-42.5 20.9-79.6 54.6-104 94.5C13.2 158 0 205.3 0 250c0 55.6 19.7 112 54.7 156.3 7.8 9.9 30 31.9 40.4 39.9 34.7 26.9 75.3 44.6 117.1 50.9 68.5 10.4 136.8-7.6 192.7-50.9 11.7-9.1 35.1-32.6 43.8-44.3 21-28 36-59.7 44.2-93 5.3-21.9 6.6-32.9 6.6-58.9s-1.3-37-6.6-58.9C471 101.4 401.6 31.1 312.1 7.9c-20.2-5.2-33.6-7-56.6-7.4-11.5-.1-22.8-.1-25 .1zM142.3 101c3.2 1.2 7.4 3.5 9.2 5.2 1.9 1.6 24.6 30.8 50.5 64.9 26 34 47.6 61.7 48 61.4.5-.3 11.3-14.4 24.1-31.3 43.4-57.4 68.4-89.7 72.9-94.2 6.9-7 12.7-8.5 32-8.5h15.5l7 3.5c6 3 7.3 4.1 9.3 8.3 1.3 2.6 2.7 7.3 3.2 10.5.6 3.3 1 56.9 1 129.2 0 133.9 0 132.1-5.5 141.5-3.3 5.8-7.9 8.4-17.7 10.2-15 2.7-33.6.1-41.9-5.7-1.6-1.2-3.9-4-5.2-6.3l-2.2-4.2-.3-79.8c-.1-43.8-.6-79.7-1.1-79.7-1 0-17.6 22.2-41.7 56-10.4 14.5-20.7 28.3-23 30.6-5.7 5.8-15.7 10.5-23.7 11.1-8.5.7-15.4-1-22.7-5.8-6.7-4.3-8.2-6.1-34.3-41.7-10.3-14.2-22.9-31.3-28-38.2l-9.2-12.5-.5 79c-.5 74-.6 79.3-2.3 83-5 10.9-14.3 14.9-34.2 14.9-19.6.1-28.4-3.7-33.4-14.3l-2.6-5.6V251c0-102.2.3-132.4 1.2-135.6 4.1-13.3 13.9-17.7 37.8-17 9.3.3 13.3.9 17.8 2.6z"/></svg>