<svg version="1" xmlns="http://www.w3.org/2000/svg" width="448" height="448" viewBox="0 0 336.000000 336.000000"><path d="M154.7.6c-.3.3-4.8.8-9.9 1.1-11.8.6-31.4 4.4-44.5 8.8-9.2 3.1-23.5 9.9-30.3 14.4-1.4.9-3.8 2.3-5.4 3.1-5.5 2.8-19.1 14.6-25.3 22C26.9 64.8 8.2 100.5 5 115.5 1.2 133.7.8 137.5.7 151c-.1 11.2.4 17.1 2.2 26 1.2 6.3 2.6 11.9 3 12.5.5.5 1.1 3 1.5 5.3.4 2.4 1.8 7.1 3.2 10.4 1.4 3.3 2.7 8.1 3 10.6 1 10.4 5.7 25.3 10.3 32.8 1.7 2.7 4.1 6.9 5.5 9.4 1.3 2.5 5.1 7.7 8.4 11.5 3.2 3.9 6.2 8.1 6.6 9.3.4 1.3 2.8 3.3 5.4 4.6 2.6 1.4 6.7 4.3 9.2 6.6 2.5 2.3 6.8 5.7 9.5 7.6 2.8 1.9 7 5 9.5 6.9 2.5 1.9 5.2 3.8 6 4.2.8.3 3.2 1.9 5.2 3.5 7.2 5.7 34 16.8 40.3 16.8 1.3 0 3.6.5 5.2 1.1 1.5.6 5.5 1.5 8.8 1.9 3.3.4 12.3 1.6 20 2.6 13.3 1.7 14.3 1.7 17.5.1 1.9-1 5.2-2 7.4-2.3 2.3-.4 7.5-1.5 11.6-2.6 4.1-1.2 8.6-2.3 10-2.5 1.4-.3 5.4-1.9 9-3.6 3.6-1.7 9.4-4.1 13-5.2 6-2 6.7-2.5 9.2-7.1 1.8-3.2 2.5-5.8 2.1-7.3-.5-2.1-1-2.2-5.7-1.6-2.8.3-7.1 1.4-9.6 2.4-6.3 2.6-18.5 5.1-24.9 5.1-3.5 0-8.9 1.2-15.5 3.4-5.9 2-11.3 3.2-12.8 2.9-1.4-.3-8.1.7-14.8 2.2-11.1 2.5-12.8 2.7-17.9 1.6-3.1-.7-9.2-1.6-13.6-2.1-12.7-1.4-16.9-2.6-28.8-8.4-20.1-9.9-38.4-23.5-41.7-31-1.8-4.3-6.1-8.6-8.6-8.6-.7 0-1.9-1-2.5-2.2-1.8-3.4-6.6-8.7-7.3-8.1-1.7 1.8-10.9-10.3-12.1-15.7l-.7-3.5L30 245c4.8 6.7 16.8 18.7 22.7 22.6 2.8 1.9 5.3 4.1 5.6 4.8.6 1.5 12.4 9.6 14.1 9.6.6 0 2 .7 3 1.5 1.1.8 2.6 1.5 3.3 1.5.7 0 5.5 2 10.6 4.4 9.1 4.4 22.3 8.4 23.4 7.2.8-.8-1-2.7-2.8-3-.8-.1-2.9-.9-4.8-1.9-1.9-.9-3.8-1.7-4.2-1.7-3.3 0-23.7-11.9-27.4-16-1-1.1-2.4-2-3.2-2-4.1 0-32.3-29.8-32.3-34.2 0-.7-2.2-3.7-4.9-6.5-2.7-2.9-5.5-7-6.1-9-.7-2.1-1.8-4.7-2.5-5.8-3.7-6-5.5-22-4.5-40.7.4-9 1-17 1.3-17.8.3-.8.8-4 1.1-7 .8-8.6 3.2-15.2 12.2-33.6 5.9-12.1 9.8-18.7 13.2-22.3 2.6-2.9 6.1-6.9 7.7-9 1.7-2.1 4.2-4.7 5.7-5.8 1.5-1.1 4.9-4 7.5-6.4 2.7-2.4 5.9-5.2 7.3-6 1.4-.9 5.5-4.4 9.3-7.8C89 56.8 92.5 54 93 54s3.5-1.6 6.8-3.4c10.5-6.2 24.1-10.5 44.4-14.1 18.6-3.3 49.8-.9 66.2 5.2 5.6 2 5.5.9-.1-1.5-5.7-2.4-15.4-4.7-24.3-5.7-3.6-.4-7.4-.9-8.5-1.1-3.7-.6-22.9-.7-31.7-.1-10.3.7-28.1 4.9-35.8 8.4-13.5 6.1-16.7 7.8-20 10.3-1.9 1.5-4.8 2.9-6.4 3.2l-2.8.6.6-5.5C82.4 42 83.9 40 94.9 33c15.4-9.9 17.5-10.9 22.1-10.3 3 .4 4.9 0 8.3-2 9.4-5.5 12.2-6 34.8-5.3 19.3.6 21.7.8 34.2 4 15.2 3.9 24.5 7.4 29.3 11.1 1.8 1.4 3.9 2.5 4.6 2.5.7 0 2.9 1.3 4.8 2.8 1.9 1.6 5.3 4 7.5 5.4 2.2 1.4 6 4.4 8.5 6.7 2.5 2.2 5.4 4.9 6.5 5.9 4 3.5 12.8 13.8 14.8 17.1 1.2 1.9 2.3 2.9 2.5 2.3.2-.7 1.5-1.2 2.8-1.2 1.3 0 2.4-.5 2.4-1 0-.6-.4-1-.8-1-.5 0-3-2.8-5.5-6.3-4.9-6.6-23.4-25.1-33.1-33-3.2-2.6-8.5-6.4-11.7-8.4-3.3-2-5.7-3.8-5.5-4 .4-.4 11.7 4.8 15.1 6.9 22.3 14.5 32 22 44.8 35C293.7 72.8 297.1 78 302 92.3c1.7 4.9 2.8 6.7 3.9 6.4 2.5-.5 1.7-6-2.2-14-1.9-3.9-4.8-9-6.6-11.2-1.7-2.2-5.2-6.7-7.6-10-15.1-20.4-27.2-30.8-51-43.7-17.8-9.7-33.6-14.9-53.8-17.9C171.9.1 156-.6 154.7.6zM58 77.4C54.4 80.9 49.5 87 47 91s-5 7.8-5.5 8.4c-4.5 5-12.3 20.8-15.7 31.6-5.8 18.5-6.9 23.4-8.3 35.7-1.3 12.6-.9 32.3.9 35.1.4.6.3 1.2-.2 1.2-.6 0-1.8-2.6-2.7-5.8-.9-3.1-2-7.1-2.5-8.7-2.4-7.9-4-21.8-4-34.4.1-17.3.1-17.6 2.9-23.6 1.2-2.8 2.9-8.8 3.7-13.4 1.8-10 6.4-20.3 10.5-23.1 1.6-1.2 4-4.1 5.5-6.5C35 81.7 41 76.3 45.7 75.1c4.2-1.2 16.2-3.8 17.8-4 .6 0-1.9 2.8-5.5 6.3zM23 216.7c0 1 .3 2.9.5 4.3.3 1.6 0 1.2-.9-1-1.8-4.3-1.9-5-.6-5 .6 0 1 .8 1 1.7zm198 96.7c0 2.2-1.5 2.8-8 2.9-6.7.2-6.7-.1-.2-2.5 5.9-2.1 8.2-2.2 8.2-.4z"/><path d="M224.8 47.1c4.6 2.2 8.6 3.8 8.8 3.6.7-.7-6.7-5-11.1-6.4-7-2.2-6.2-1.3 2.3 2.8zM295.5 114.2c.4 1.8 1.7 5.5 2.9 8.3 2.6 5.5 6.6 18.8 10.6 35.2.6 2.4 1.5 4.3 2 4.3.4 0 1.6-2 2.5-4.4 1.6-4 1.6-5 .2-10.8-2.7-11.1-7.3-22.7-12.3-30.6-3.9-6.1-6.9-7.1-5.9-2zM124.3 187.8c-9.9 5.3-27.1 23.1-37.1 38.4-5.4 8.3-11.6 22.2-10.8 24.1.2.7.8.1 1.2-1.3 1.7-5.7 9.9-20.5 15.6-28.2 7.7-10.3 13.6-16.7 21.3-22.8 13.9-11 19.2-10.5 12.8 1.2-1.9 3.5-6.4 8.1-15.4 15.8-16 13.8-22 21-17.3 21 4.1 0 19.5-13.4 28.7-25 5.6-7.1 15.2-15 18.3-15 4 0 .6 4.8-11.9 17.3-14 13.9-19.7 21.8-19.7 27.5 0 2.5.5 3.5 2.2 4.1 2.6.9 7.1.1 11.3-2.2 3.4-1.8 2.1-2.2-2.1-.7-3.3 1.3-6.4.4-6.4-1.9 0-3.2 5.6-10.5 17.4-23.1 11.8-12.4 16.5-19.3 15.3-22.4-.9-2.3-4.6-2-10.1.8-3.8 1.9-4.6 2.1-4 .7 1.5-3.4 1.7-8.3.3-9.2-2.2-1.4-6.1-1-9.6.9zM112 218.6c-6.8 6.9-16.5 15.1-15.2 12.9 1.6-3.1 17.3-17.5 18.9-17.5.4 0-1.3 2.1-3.7 4.6z"/><path d="M139.5 217.3c-6.1 6.1-5.8 15.7.5 15.7 3.5 0 8-2.6 8-4.6 0-2.1-2.8-1.7-3.5.6-.9 2.9-4.5 2.6-4.5-.4 0-1.7.7-2.6 2.3-3 5.7-1.4 10.2-9.4 6.1-11-3.2-1.2-5.7-.5-8.9 2.7zm9-.3c1 1.5-1.3 4.9-4.5 6.5-1.6.8-3.1 1.5-3.5 1.5-1.1 0-.4-2.6 1.5-5.8 1.9-3.1 5.2-4.3 6.5-2.2zM161.3 215.2c-3.5 1.7-3.6 3.7-.3 5.6 5.9 3.4 3 8.9-4 7.7-3.2-.5-4-.4-4 .9 0 4.1 8.4 4.8 12.9 1 4.9-4.1 3.6-8.9-2.7-10.9-2.8-.8-2.4-2.9.6-3.3 1.3-.2 2.5.3 2.8 1.3.5 1.2.9 1.3 2 .4s1.1-1.5.3-2.5c-1.3-1.6-4.5-1.7-7.6-.2zM182.3 215.2c-3.5 1.7-3.6 3.7-.3 5.6 5.9 3.4 3 8.9-4 7.7-3.2-.5-4-.4-4 .9 0 4.1 8.4 4.8 12.9 1 4.9-4.1 3.6-8.9-2.7-10.9-2.8-.8-2.4-2.9.6-3.3 1.3-.2 2.5.3 2.8 1.3.5 1.2.9 1.3 2 .4s1.1-1.5.3-2.5c-1.3-1.6-4.5-1.7-7.6-.2zM199.6 216.2c-2.1 2.9-8.6 22.9-8.6 26.4 0 1.9.5 2.5 1.8 2.2 1.1-.2 2.5-2.6 4.1-7.6 2.2-6.7 2.5-7.1 4.1-5.7 4.7 4.2 12.8-.9 13.7-8.6.9-8.1-2.3-10.7-8.8-7.4-1.9 1-2.8 1.2-2.7.4.5-2.2-2-2-3.6.3zm12.4 1.3c1.6 2 .5 6.1-2.5 9.1-3.1 3-6.3 3.1-7.4.1-1.1-2.8.2-6.3 2.1-5.9.8.1 2-.9 2.6-2.3 1.3-2.8 3.4-3.2 5.2-1zM224.5 215c-1 1.6-5.5 15.2-5.5 16.7 0 .7.6 1.3 1.4 1.3.9 0 2.3-2.6 3.6-6.8 2.2-6.7 4.8-10.2 7.7-10.2 1.3 0 1.5.9 1.1 4.5-.3 2.6-.1 4.8.5 5.2 1.8 1.1 3.8-3 3.5-7.2-.3-3.6-.6-4-3.1-4.3-1.7-.2-3.7.4-4.8 1.4-1.7 1.6-1.9 1.6-1.9.1 0-1.9-1.5-2.3-2.5-.7zM244.5 217.3c-6.1 6.1-5.8 15.7.5 15.7 3.5 0 8-2.6 8-4.6 0-2.1-2.8-1.7-3.5.6-.9 2.9-4.5 2.6-4.5-.4 0-1.7.7-2.6 2.3-3 5.7-1.4 10.2-9.4 6.1-11-3.2-1.2-5.7-.5-8.9 2.7zm9-.3c1 1.5-1.3 4.9-4.5 6.5-1.6.8-3.1 1.5-3.5 1.5-1.1 0-.4-2.6 1.5-5.8 1.9-3.1 5.2-4.3 6.5-2.2zM266.3 215.2c-3.5 1.7-3.6 3.7-.3 5.6 5.9 3.4 3 8.9-4 7.7-3.2-.5-4-.4-4 .9 0 4.1 8.4 4.8 12.9 1 4.9-4.1 3.6-8.9-2.7-10.9-2.8-.8-2.4-2.9.6-3.3 1.3-.2 2.5.3 2.8 1.3.5 1.2.9 1.3 2 .4s1.1-1.5.3-2.5c-1.3-1.6-4.5-1.7-7.6-.2zM287.3 215.2c-3.5 1.7-3.6 3.7-.3 5.6 5.9 3.4 3 8.9-4 7.7-3.2-.5-4-.4-4 .9 0 4.1 8.4 4.8 12.9 1 4.9-4.1 3.6-8.9-2.7-10.9-2.8-.8-2.4-2.9.6-3.3 1.3-.2 2.5.3 2.8 1.3.5 1.2.9 1.3 2 .4s1.1-1.5.3-2.5c-1.3-1.6-4.5-1.7-7.6-.2zM305.8 216.2c-5.4 4.7-7.4 12.1-4 15.1 6.4 5.8 16.8-5.1 13.6-14.2-1.3-3.6-5.9-4-9.6-.9zm7.2 1.8c2.7 5.1-5.8 13.7-9.6 9.8-2-2-1-8.3 1.1-7.4.8.2 2.1-.6 2.9-2 2-2.9 4.2-3.1 5.6-.4zM273 277c-.9.6-1 1-.3 1 .6 0 1.5-.5 1.8-1 .8-1.2.4-1.2-1.5 0zM227 278.5c-1.9 2.3-24.7 13.1-32.5 15.4-16.7 4.9-37.2 7-52 5.5-16.2-1.8-17 1.2-1 3.6 14.9 2.3 32.9.4 62.5-6.6 4.1-1 29-13.3 29-14.4 0-.5-.9-1.4-2-2-1.1-.6-1.8-1.5-1.5-2.1 1-1.5-1.1-1-2.5.6zM269.6 280.9c-.4.7-.5 1.5-.2 1.8.9.9 1.9-.4 1.4-1.8-.4-1.1-.6-1.1-1.2 0zM294.3 298.8c-3 .5-6.3 4.8-6.3 8.4 0 3.4 3.9 7.8 6.9 7.8 4.9 0 10.1-5 10.1-9.7 0-3.8-5.7-7.3-10.7-6.5z"/></svg>